# xmcd
#
# Track frame offsets:
#	150
#	17019
#	32415
#	45572
#	65021
#	83769
#	102942
#	109737
#	125429
#	142239
#	158315
#
# Disc length: 2344 seconds
#
# Revision: 1
# Processed by: cddbd v1.5.2PL0 Copyright (c) Steve Scherf et al.
# Submitted via: audiograbber 1.83.01
#
DISCID=8609260b
DTITLE=Plainfield Slim - Another Mule In The Barn
DYEAR=2006
DGENRE=
TTITLE0=Let Go My Hand
TTITLE1=59 Minutes
TTITLE2=A Hard Train A Runnin'
TTITLE3=Bang You're Gone
TTITLE4=Dressing Drawer
TTITLE5=Marlene
TTITLE6=Slim's Romp
TTITLE7=Shimmy Shack Shake
TTITLE8=Shake My Eggs
TTITLE9=You Can't Stay Here
TTITLE10=Another Mule In The Barn
EXTD=
EXTT0=
EXTT1=
EXTT2=
EXTT3=
EXTT4=
EXTT5=
EXTT6=
EXTT7=
EXTT8=
EXTT9=
EXTT10=
PLAYORDER=
